<svg width="26" height="26" viewBox="0 0 26 26" fill="none" xmlns="http://www.w3.org/2000/svg">
<g id="iconoir:sound-off-solid">
<path id="Vector" fill-rule="evenodd" clip-rule="evenodd" d="M18.9257 10.2592C19.078 10.107 19.2845 10.0216 19.4998 10.0216C19.7151 10.0216 19.9217 10.107 20.074 10.2592L21.6665 11.8517L23.259 10.2592C23.413 10.1157 23.6167 10.0375 23.8272 10.0412C24.0377 10.045 24.2386 10.1302 24.3874 10.2791C24.5363 10.428 24.6216 10.6288 24.6253 10.8393C24.629 11.0498 24.5509 11.2535 24.4073 11.4075L22.8159 13L24.4084 14.5925C24.5564 14.7458 24.6382 14.9511 24.6362 15.1641C24.6343 15.3772 24.5487 15.5809 24.398 15.7315C24.2473 15.8821 24.0434 15.9674 23.8304 15.9692C23.6174 15.9709 23.4122 15.8889 23.259 15.7409L21.6665 14.1484L20.074 15.7409C19.92 15.8844 19.7163 15.9625 19.5058 15.9588C19.2953 15.9551 19.0944 15.8698 18.9456 15.7209C18.7967 15.5721 18.7114 15.3712 18.7077 15.1608C18.704 14.9503 18.7821 14.7465 18.9257 14.5925L20.5182 13L18.9257 11.4075C18.7735 11.2552 18.6881 11.0487 18.6881 10.8334C18.6881 10.618 18.7735 10.4115 18.9257 10.2592ZM14.1233 3.67902C15.3832 2.84811 17.0623 3.75269 17.0623 5.26177V20.7383C17.0623 22.2484 15.3832 23.1519 14.1233 22.321L7.62325 18.0364C7.57928 18.0071 7.52769 17.9913 7.47484 17.9909H4.33317C3.54305 17.9909 2.78528 17.6771 2.22658 17.1184C1.66788 16.5597 1.354 15.8019 1.354 15.0118V10.9883C1.354 10.1981 1.66788 9.44039 2.22658 8.88168C2.78528 8.32298 3.54305 8.00911 4.33317 8.00911H7.47484C7.52795 8.00928 7.57994 7.99383 7.62434 7.96469L14.1233 3.67902Z" fill="#484E5C"/>
</g>
</svg>
