<svg width="26" height="26" viewBox="0 0 26 26" fill="none" xmlns="http://www.w3.org/2000/svg">
<g id="iconoir:sound-low-solid">
<path id="Vector" fill-rule="evenodd" clip-rule="evenodd" d="M20.5507 7.55086C20.703 7.3987 20.9095 7.31324 21.1248 7.31324C21.3401 7.31324 21.5467 7.3987 21.699 7.55086L21.7012 7.55302L21.7044 7.55519L21.712 7.56277L21.7337 7.58444L21.8008 7.65919C21.855 7.72094 21.9308 7.80869 22.0186 7.92027C23.0196 9.22132 23.5623 10.8168 23.5623 12.4584C23.5623 14.0999 23.0196 15.6954 22.0186 16.9964C21.9279 17.1122 21.8324 17.2243 21.7326 17.3323L21.7109 17.3539L21.7044 17.3615L21.7012 17.3637L21.7001 17.3648L21.1476 16.8144L21.7001 17.3669C21.5477 17.5194 21.3409 17.605 21.1254 17.605C20.9098 17.605 20.7031 17.5194 20.5507 17.3669C20.3982 17.2145 20.3126 17.0078 20.3126 16.7922C20.3126 16.5767 20.3982 16.3699 20.5507 16.2175L20.5496 16.2186L20.5474 16.2197L20.5528 16.2143L20.5886 16.1753C20.6233 16.1377 20.6734 16.0774 20.7392 15.9944C21.4245 15.0997 21.8352 14.0252 21.9214 12.9014C22.0075 11.7777 21.7654 10.6532 21.2245 9.66444C21.0833 9.40423 20.921 9.15604 20.7392 8.92236C20.6803 8.84633 20.6182 8.77295 20.5528 8.70244L20.5474 8.69702C20.3964 8.54434 20.3119 8.33805 20.3125 8.12327C20.3131 7.90848 20.3987 7.70268 20.5507 7.55086ZM14.1233 3.67902C15.3832 2.84811 17.0623 3.75269 17.0623 5.26177V20.7383C17.0623 22.2484 15.3832 23.1519 14.1233 22.321L7.62325 18.0364C7.57928 18.0071 7.52769 17.9913 7.47484 17.9909H4.33317C3.54305 17.9909 2.78528 17.6771 2.22658 17.1184C1.66788 16.5597 1.354 15.8019 1.354 15.0118V10.9883C1.354 10.1981 1.66788 9.44039 2.22658 8.88168C2.78528 8.32298 3.54305 8.00911 4.33317 8.00911H7.47484C7.52795 8.00928 7.57994 7.99383 7.62434 7.96469L14.1233 3.67902Z" fill="#484E5C"/>
</g>
</svg>
