<svg width="272" height="83" viewBox="0 0 272 83" fill="none" xmlns="http://www.w3.org/2000/svg">
	<rect y="12" width="54" height="54" rx="27" fill="#E4156A" />
	<path d="M27.0001 59.8237C21.4967 59.8237 17.0344 58.9312 17.0344 57.7413C17.0344 56.5513 21.4967 55.6589 27.0001 55.6589C32.5035 55.6589 36.9658 56.5513 36.9658 57.7413C36.9658 58.9312 32.5035 59.8237 27.0001 59.8237ZM27.0001 54.6177C20.9017 54.6177 15.8445 51.9404 15.8445 48.8168C15.8445 45.6932 20.9017 43.0159 27.0001 43.0159C33.0985 43.0159 38.1557 45.6932 38.1557 48.8168C38.1557 51.9404 33.0985 54.6177 27.0001 54.6177ZM27.0001 41.6772C20.4555 41.6772 15.1008 36.4712 15.1008 29.9266C15.1008 23.382 20.4555 18.176 27.0001 18.176C33.5447 18.176 38.8994 23.382 38.8994 29.9266C38.8994 36.4712 33.5447 41.6772 27.0001 41.6772Z" fill="url(#paint0_linear_2169_282)" />
	<g filter="url(#filter0_d_2169_282)">
		<path d="M68 18.3538H85.6967V24.2527H74.4888V35.1657H83.3962V41.0646H74.4888V53.7473H85.6967V59.6462H68V18.3538Z" fill="white" />
		<path d="M87.719 18.3538H94.2668L98.514 50.3849H98.632L102.879 18.3538H108.837L102.584 59.6462H93.9718L87.719 18.3538Z" fill="white" />
		<path d="M121.218 60.2361C118.032 60.2361 115.594 59.3316 113.903 57.5226C112.212 55.7136 111.367 53.1574 111.367 49.854V28.146C111.367 24.8426 112.212 22.2864 113.903 20.4774C115.594 18.6684 118.032 17.7639 121.218 17.7639C124.403 17.7639 126.842 18.6684 128.533 20.4774C130.224 22.2864 131.069 24.8426 131.069 28.146V49.854C131.069 53.1574 130.224 55.7136 128.533 57.5226C126.842 59.3316 124.403 60.2361 121.218 60.2361ZM121.218 54.3372C123.459 54.3372 124.58 52.9804 124.58 50.2669V27.7331C124.58 25.0196 123.459 23.6628 121.218 23.6628C118.976 23.6628 117.855 25.0196 117.855 27.7331V50.2669C117.855 52.9804 118.976 54.3372 121.218 54.3372Z" fill="white" />
		<path d="M144.66 60.2361C141.514 60.2361 139.115 59.3513 137.463 57.5816C135.811 55.7726 134.985 53.1967 134.985 49.854V28.146C134.985 24.8033 135.811 22.2471 137.463 20.4774C139.115 18.6684 141.514 17.7639 144.66 17.7639C147.806 17.7639 150.205 18.6684 151.856 20.4774C153.508 22.2471 154.334 24.8033 154.334 28.146V31.6854H148.199V27.7331C148.199 25.0196 147.078 23.6628 144.837 23.6628C142.595 23.6628 141.474 25.0196 141.474 27.7331V50.3259C141.474 53.0001 142.595 54.3372 144.837 54.3372C147.078 54.3372 148.199 53.0001 148.199 50.3259V42.2444H144.955V36.3455H154.334V49.854C154.334 53.1967 153.508 55.7726 151.856 57.5816C150.205 59.3513 147.806 60.2361 144.66 60.2361Z" fill="white" />
		<path d="M163.514 18.3538H172.303L179.028 59.6462H172.539L171.36 51.4467V51.5647H163.986L162.806 59.6462H156.789L163.514 18.3538ZM170.593 45.9607L167.702 25.5505H167.584L164.753 45.9607H170.593Z" fill="white" />
		<path d="M182.176 18.3538H191.438L195.567 47.9074H195.685L199.814 18.3538H209.075V59.6462H202.94V28.382H202.822L198.103 59.6462H192.676L187.957 28.382H187.839V59.6462H182.176V18.3538Z" fill="white" />
		<path d="M213.917 18.3538H220.406V59.6462H213.917V18.3538Z" fill="white" />
		<path d="M225.266 18.3538H233.406L239.718 43.0703H239.836V18.3538H245.617V59.6462H238.951L231.165 29.5028H231.047V59.6462H225.266V18.3538Z" fill="white" />
		<path d="M259.642 60.2361C256.496 60.2361 254.097 59.3513 252.446 57.5816C250.794 55.7726 249.968 53.1967 249.968 49.854V28.146C249.968 24.8033 250.794 22.2471 252.446 20.4774C254.097 18.6684 256.496 17.7639 259.642 17.7639C262.788 17.7639 265.187 18.6684 266.839 20.4774C268.491 22.2471 269.317 24.8033 269.317 28.146V31.6854H263.182V27.7331C263.182 25.0196 262.061 23.6628 259.819 23.6628C257.578 23.6628 256.457 25.0196 256.457 27.7331V50.3259C256.457 53.0001 257.578 54.3372 259.819 54.3372C262.061 54.3372 263.182 53.0001 263.182 50.3259V42.2444H259.937V36.3455H269.317V49.854C269.317 53.1967 268.491 55.7726 266.839 57.5816C265.187 59.3513 262.788 60.2361 259.642 60.2361Z" fill="white" />
	</g>
	<defs>
		<filter id="filter0_d_2169_282" x="48.2283" y="0.757476" width="240.86" height="82.0156" filterUnits="userSpaceOnUse" color-interpolation-filters="sRGB">
			<feFlood flood-opacity="0" result="BackgroundImageFix" />
			<feColorMatrix in="SourceAlpha" type="matrix" values="0 0 0 0 0 0 0 0 0 0 0 0 0 0 0 0 0 0 127 0" result="hardAlpha" />
			<feOffset dy="2.76528" />
			<feGaussianBlur stdDeviation="9.88586" />
			<feComposite in2="hardAlpha" operator="out" />
			<feColorMatrix type="matrix" values="0 0 0 0 0 0 0 0 0 0 0 0 0 0 0 0 0 0 0.1 0" />
			<feBlend mode="normal" in2="BackgroundImageFix" result="effect1_dropShadow_2169_282" />
			<feBlend mode="normal" in="SourceGraphic" in2="effect1_dropShadow_2169_282" result="shape" />
		</filter>
		<linearGradient id="paint0_linear_2169_282" x1="27.0001" y1="18.176" x2="27.0001" y2="59.8237" gradientUnits="userSpaceOnUse">
			<stop stop-color="#FDD148" />
			<stop offset="1" stop-color="#FF8B4D" />
		</linearGradient>
	</defs>
</svg>
