<svg width="54" height="54" viewBox="0 12 54 54" fill="none" xmlns="http://www.w3.org/2000/svg">
	<rect y="12" width="54" height="54" rx="27" fill="#E4156A" />
	<path d="M27.0001 59.8237C21.4967 59.8237 17.0344 58.9312 17.0344 57.7413C17.0344 56.5513 21.4967 55.6589 27.0001 55.6589C32.5035 55.6589 36.9658 56.5513 36.9658 57.7413C36.9658 58.9312 32.5035 59.8237 27.0001 59.8237ZM27.0001 54.6177C20.9017 54.6177 15.8445 51.9404 15.8445 48.8168C15.8445 45.6932 20.9017 43.0159 27.0001 43.0159C33.0985 43.0159 38.1557 45.6932 38.1557 48.8168C38.1557 51.9404 33.0985 54.6177 27.0001 54.6177ZM27.0001 41.6772C20.4555 41.6772 15.1008 36.4712 15.1008 29.9266C15.1008 23.382 20.4555 18.176 27.0001 18.176C33.5447 18.176 38.8994 23.382 38.8994 29.9266C38.8994 36.4712 33.5447 41.6772 27.0001 41.6772Z" fill="url(#paint0_linear_2169_282)" />
	<defs>
		<linearGradient id="paint0_linear_2169_282" x1="27.0001" y1="18.176" x2="27.0001" y2="59.8237" gradientUnits="userSpaceOnUse">
			<stop stop-color="#FDD148" />
			<stop offset="1" stop-color="#FF8B4D" />
		</linearGradient>
	</defs>
</svg>
